<svg xmlns="http://www.w3.org/2000/svg" xmlns:xlink="http://www.w3.org/1999/xlink" viewBox="0 0 492.75 64"><defs><style>.cls-1{fill:url(#linear-gradient);}.cls-2{fill:url(#linear-gradient-2);}.cls-3{fill:#77bcbb;}.cls-4{fill:#5a8f90;}.cls-5{fill:#fff;}</style><linearGradient id="linear-gradient" x1="430.07" y1="33.4" x2="487.07" y2="33.4" gradientTransform="matrix(1, 0, 0, -1, 0, 63.89)" gradientUnits="userSpaceOnUse"><stop offset="0" stop-color="#609a99"/><stop offset="1" stop-color="#80cdd2"/></linearGradient><linearGradient id="linear-gradient-2" x1="1390.2" y1="42.7" x2="1428.49" y2="42.7" gradientTransform="matrix(-1.16, 0, 0, 1.16, 1676.6, -14.85)" xlink:href="#linear-gradient"/></defs><title>announcement</title><g id="Banner"><polygon class="cls-1" points="487.07 5.07 451.92 3.17 431.02 5.07 433.87 31.67 430.07 52.57 455.72 53.52 482.58 57.81 484.06 55.79 455.72 30.72 469.86 18.88 469.48 14.2 473.79 16.07 487.07 5.07"/><polygon class="cls-2" points="51.42 61.72 26.86 47.94 19.71 45.65 28.09 40.5 32.56 37.6 35.08 38.66 34.42 36.69 39.79 33.46 29.28 16.89 10.83 7.83 33.45 7.63 60.49 13.85 60.72 39.37 51.42 61.72"/><polygon class="cls-3" points="440.07 57.52 424.38 56.86 283.03 57.77 156 55.95 154.67 53.42 153.07 55.87 126.78 55.39 85.78 57.94 70.18 57.26 69.26 54.22 67.51 57.11 47.43 54.16 54.84 34.48 53.34 9.44 82 10.05 121.73 8.08 275.18 10.26 425.76 8.72 438.07 7.52 435.07 31.52 440.07 57.52"/><polygon class="cls-4" points="51.42 61.72 47.43 54.16 54.14 55.2 51.42 61.72"/><polygon class="cls-4" points="431.02 5.07 438.07 7.52 430.42 8.27 431.02 5.07"/></g><g id="Text"><path class="cls-5" d="M97.93,38.58a2.63,2.63,0,0,1,1.59.29,1.75,1.75,0,0,1,.63,1.57A1.74,1.74,0,0,1,99.52,42a2.63,2.63,0,0,1-1.59.29H91.49c-1.44,0-1.94-.55-1.94-1.94V27.43a2.57,2.57,0,0,1,.32-1.65,2.85,2.85,0,0,1,3.5,0,2.57,2.57,0,0,1,.32,1.65V38.58Z"/><path class="cls-5" d="M106.85,31.62h2.86a2.84,2.84,0,0,1,1.59.26,1.65,1.65,0,0,1,.63,1.49,1.65,1.65,0,0,1-.63,1.49,2.84,2.84,0,0,1-1.59.26h-2.86v3.64h4.37a2.86,2.86,0,0,1,1.6.26,2.09,2.09,0,0,1,0,3,2.86,2.86,0,0,1-1.6.26h-6.38c-1.41,0-1.94-.55-1.94-1.94v-13c0-1.41.53-1.94,1.94-1.94h5.86a2.88,2.88,0,0,1,1.6.26,1.7,1.7,0,0,1,.62,1.5,1.69,1.69,0,0,1-.62,1.49,2.88,2.88,0,0,1-1.6.26h-3.85Z"/><path class="cls-5" d="M126.22,38.37h-5.94l-.78,2.12c-.5,1.31-1,1.91-2.49,1.91-1.31,0-1.8-.47-1.8-1.2a2.7,2.7,0,0,1,.28-1.08l5.45-13c.52-1.23,1-1.94,2.51-1.94s1.93.71,2.43,1.94l5.24,13.09a2.79,2.79,0,0,1,.23,1c0,.81-.63,1.26-1.93,1.26s-1.89-.52-2.41-1.91Zm-4.73-3.25H125l-1.77-4.73Z"/><path class="cls-5" d="M138.06,40.15a2.7,2.7,0,0,1-.32,1.62,2.54,2.54,0,0,1-3.35,0,2.72,2.72,0,0,1-.29-1.62V27.8a2,2,0,0,1,1.55-2.31,12.24,12.24,0,0,1,3.3-.36,10.42,10.42,0,0,1,4.39.78,4.67,4.67,0,0,1,2.72,4.48,5,5,0,0,1-2.8,4.71l3.88,5.21c.73,1,.31,2.09-1.68,2.09-1.54,0-2.09-.65-2.83-1.73l-2.09-3.14c-.44-.65-.91-1.51-.91-1.51h-1.57Zm0-7.35s.34,0,.73,0c2.09,0,3.11-.73,3.11-2.2s-1.18-2-2.69-2a8.45,8.45,0,0,0-1.15.08Z"/><path class="cls-5" d="M154.52,40.15a2.54,2.54,0,0,1-.31,1.62,2.58,2.58,0,0,1-3.38,0,2.57,2.57,0,0,1-.31-1.62V26.78c0-1,.7-1.63,2.17-1.63a3,3,0,0,1,2.77,1.55l6.75,8.84V27.43a2.47,2.47,0,0,1,.32-1.62,2,2,0,0,1,1.67-.63,2,2,0,0,1,1.7.63,2.47,2.47,0,0,1,.32,1.62v13.4c0,1.1-.71,1.65-1.91,1.65A3,3,0,0,1,161.74,41l-7.22-9.24Z"/><path class="cls-5" d="M184.7,40.15a2.57,2.57,0,0,1-.31,1.62,2,2,0,0,1-1.76.63,2,2,0,0,1-1.75-.63,2.57,2.57,0,0,1-.31-1.62V29.05h-2.86a2.71,2.71,0,0,1-1.59-.28,1.75,1.75,0,0,1-.63-1.55,1.76,1.76,0,0,1,.63-1.57,2.63,2.63,0,0,1,1.59-.29h9.84a2.65,2.65,0,0,1,1.6.29,1.79,1.79,0,0,1,.63,1.57,1.77,1.77,0,0,1-.63,1.55,2.73,2.73,0,0,1-1.6.28H184.7Z"/><path class="cls-5" d="M199.59,24.94c5.5,0,8.95,3.75,8.95,8.8s-3.55,8.87-9,8.87-9-3.74-9-8.79S194.13,24.94,199.59,24.94Zm0,14.14c2.93,0,4.79-1.94,4.79-5.29s-1.89-5.31-4.82-5.31-4.79,1.93-4.79,5.28S196.64,39.08,199.57,39.08Z"/><path class="cls-5" d="M226,38.81a5.19,5.19,0,0,0,2-.39,6.08,6.08,0,0,1,1.83-.68c1.08,0,1.65,1.28,1.65,2.07a2,2,0,0,1-1.18,1.67,9.16,9.16,0,0,1-4.52,1.08c-4.79,0-8.56-3.22-8.56-8.8,0-5.86,4.13-8.76,8.64-8.76a9.19,9.19,0,0,1,4.44,1,2,2,0,0,1,1.18,1.7c0,.82-.55,2.1-1.65,2.1a6.1,6.1,0,0,1-2-.68,5.42,5.42,0,0,0-2.07-.42c-2.3,0-4.39,1.49-4.39,4.95S223.62,38.81,226,38.81Z"/><path class="cls-5" d="M242.44,24.94c5.5,0,8.95,3.75,8.95,8.8s-3.55,8.87-9,8.87-9-3.74-9-8.79S237,24.94,242.44,24.94Zm0,14.14c2.93,0,4.79-1.94,4.79-5.29s-1.89-5.31-4.82-5.31-4.79,1.93-4.79,5.28S239.49,39.08,242.42,39.08Z"/><path class="cls-5" d="M266.81,40.75a13.07,13.07,0,0,1-7.27,1.7,9.86,9.86,0,0,1-3.74-.5c-1-.41-1.13-1-1.13-2V27.74c0-1.28.29-1.93,1.91-2.3a17.87,17.87,0,0,1,3.64-.31A11.75,11.75,0,0,1,267,26.75c1.72,1.2,3.16,3.32,3.16,6.91C270.16,37.43,268.59,39.57,266.81,40.75Zm-8-1.88s.6.05,1.33.05c1.81,0,5.87-.32,5.87-5.05a5.11,5.11,0,0,0-1.7-4.16,5.94,5.94,0,0,0-3.9-1.05,9.5,9.5,0,0,0-1.6.11Z"/><path class="cls-5" d="M277.39,31.62h2.85a2.86,2.86,0,0,1,1.6.26,1.68,1.68,0,0,1,.63,1.49,1.68,1.68,0,0,1-.63,1.49,2.86,2.86,0,0,1-1.6.26h-2.85v3.64h4.37a2.86,2.86,0,0,1,1.6.26,2.09,2.09,0,0,1,0,3,2.86,2.86,0,0,1-1.6.26h-6.38c-1.42,0-1.94-.55-1.94-1.94v-13c0-1.41.52-1.94,1.94-1.94h5.86a2.84,2.84,0,0,1,1.59.26,1.67,1.67,0,0,1,.63,1.5,1.67,1.67,0,0,1-.63,1.49,2.84,2.84,0,0,1-1.59.26h-3.85Z"/><path class="cls-5" d="M301.55,40.23c-.47,1.44-1,2.2-2.7,2.2s-2.09-.76-2.51-2.33l-3.4-12.49a4.13,4.13,0,0,1-.18-1.07c0-.78.44-1.36,2.06-1.36s2.07.55,2.39,1.94l2.17,9.57,2.82-9.08c.34-1.09.66-1.85,2.31-1.85s2,.73,2.35,1.85l2.78,9.06,2.22-9.53c.32-1.41.68-2,2.25-2s2.07.47,2.07,1.31a4.35,4.35,0,0,1-.18,1.07L312.46,40.1c-.44,1.62-.81,2.33-2.56,2.33a2.5,2.5,0,0,1-2.8-2.15l-2.75-8.53Z"/><path class="cls-5" d="M323.54,40.15a2.63,2.63,0,0,1-.31,1.65,2,2,0,0,1-1.76.6,2,2,0,0,1-1.75-.6,2.57,2.57,0,0,1-.32-1.65V27.43a2.57,2.57,0,0,1,.32-1.65,2,2,0,0,1,1.75-.6,2,2,0,0,1,1.76.6,2.63,2.63,0,0,1,.31,1.65Z"/><path class="cls-5" d="M335.47,40.15a2.57,2.57,0,0,1-.31,1.62,2,2,0,0,1-1.75.63,2,2,0,0,1-1.76-.63,2.57,2.57,0,0,1-.31-1.62V29.05h-2.85a2.73,2.73,0,0,1-1.6-.28,1.77,1.77,0,0,1-.63-1.55,1.79,1.79,0,0,1,.63-1.57,2.65,2.65,0,0,1,1.6-.29h9.84a2.63,2.63,0,0,1,1.59.29,1.76,1.76,0,0,1,.63,1.57,1.75,1.75,0,0,1-.63,1.55,2.71,2.71,0,0,1-1.59.28h-2.86Z"/><path class="cls-5" d="M358.43,40.15a2.57,2.57,0,0,1-.32,1.65,2.85,2.85,0,0,1-3.5,0,2.57,2.57,0,0,1-.32-1.65v-5h-6.88v5a2.63,2.63,0,0,1-.31,1.65,2,2,0,0,1-1.76.6,2,2,0,0,1-1.75-.6,2.63,2.63,0,0,1-.31-1.65V27.43a2.63,2.63,0,0,1,.31-1.65,2,2,0,0,1,1.75-.6,2,2,0,0,1,1.76.6,2.63,2.63,0,0,1,.31,1.65v4.08h6.88V27.43a2.57,2.57,0,0,1,.32-1.65,2.85,2.85,0,0,1,3.5,0,2.57,2.57,0,0,1,.32,1.65Z"/><path class="cls-5" d="M379.69,38a4.64,4.64,0,0,0,.75-3V27.43a2.57,2.57,0,0,1,.32-1.65,2,2,0,0,1,1.72-.6c.9,0,1.42.18,1.73.6a2.57,2.57,0,0,1,.32,1.65v7.33c0,1.78,0,3.82-1.5,5.57-1.12,1.31-2.95,2.25-6.09,2.25s-4.95-1-6.05-2.25c-1.52-1.78-1.52-3.74-1.52-5.6v-7.3a2.57,2.57,0,0,1,.32-1.65,2,2,0,0,1,1.75-.6,2,2,0,0,1,1.76.6,2.63,2.63,0,0,1,.31,1.65V35a4.62,4.62,0,0,0,.73,3,3.38,3.38,0,0,0,2.75,1A3.31,3.31,0,0,0,379.69,38Z"/><path class="cls-5" d="M396.33,33a5,5,0,0,1,2.59,4.4c0,3.32-2.77,5.18-6.09,5.18a8.09,8.09,0,0,1-3.56-.78c-.84-.42-1.52-1-1.52-1.89s.63-2,1.65-2,1.86,1.21,3.45,1.21c1.15,0,1.94-.61,1.94-1.55s-.94-1.59-2.09-2.2c-2-1-4.71-2.25-4.71-5.33s2.61-5,5.86-5c2.3,0,4.76,1,4.76,2.54a1.94,1.94,0,0,1-1.73,1.91c-.94,0-1.78-1-3.11-1-1,0-1.65.55-1.65,1.26C392.12,31.12,394.48,31.72,396.33,33Z"/></g></svg>