<svg xmlns="http://www.w3.org/2000/svg" xmlns:xlink="http://www.w3.org/1999/xlink" viewBox="0 0 690 64"><defs><style>.cls-1{fill:url(#linear-gradient);}.cls-2{fill:url(#linear-gradient-2);}.cls-3{fill:#77bcbb;}.cls-4{fill:#5a8f90;}.cls-5{fill:#fff;}</style><linearGradient id="linear-gradient" x1="627.32" y1="33.4" x2="684.32" y2="33.4" gradientTransform="matrix(1, 0, 0, -1, 0, 63.89)" gradientUnits="userSpaceOnUse"><stop offset="0" stop-color="#609a99"/><stop offset="1" stop-color="#80cdd2"/></linearGradient><linearGradient id="linear-gradient-2" x1="1595.1" y1="42.7" x2="1633.39" y2="42.7" gradientTransform="matrix(-1.16, 0, 0, 1.16, 1906.01, -14.85)" xlink:href="#linear-gradient"/></defs><title>announcement</title><g id="Banner"><polygon class="cls-1" points="684.32 5.07 649.17 3.17 628.27 5.07 631.12 31.67 627.32 52.57 652.97 53.52 679.83 57.81 681.31 55.79 652.97 30.72 667.11 18.88 666.73 14.2 671.04 16.07 684.32 5.07"/><polygon class="cls-2" points="43.15 61.72 18.59 47.94 11.44 45.65 19.82 40.5 24.29 37.6 26.81 38.66 26.15 36.69 31.52 33.46 21.01 16.89 2.56 7.83 25.18 7.63 52.22 13.85 52.45 39.37 43.15 61.72"/><polygon class="cls-3" points="637.32 57.52 621.63 56.86 506.91 57.77 379.88 55.95 378.55 53.42 376.95 55.87 232.99 55.39 77.51 57.94 61.91 57.26 60.99 54.22 59.24 57.11 39.16 54.16 46.57 34.48 45.07 9.44 73.73 10.05 227.94 8.08 499.06 10.26 623.01 8.72 635.32 7.52 632.32 31.52 637.32 57.52"/><polygon class="cls-4" points="43.15 61.72 39.16 54.16 45.87 55.2 43.15 61.72"/><polygon class="cls-4" points="628.27 5.07 635.32 7.52 627.67 8.27 628.27 5.07"/></g><g id="Text"><path class="cls-5" d="M107.16,41.35V24.29h4l4.45,8.48,1.67,3.77h.11c-.09-.91-.19-1.92-.31-3s-.17-2.18-.17-3.19v-6h3.67V41.35h-4l-4.45-8.5-1.68-3.72h-.1q.12,1.41.3,3a31.28,31.28,0,0,1,.17,3.15v6Z"/><path class="cls-5" d="M131.51,41.67a7.88,7.88,0,0,1-3.16-.62,6.82,6.82,0,0,1-2.44-1.77,8,8,0,0,1-1.59-2.8,11.62,11.62,0,0,1-.56-3.74,11.56,11.56,0,0,1,.56-3.73,7.66,7.66,0,0,1,1.59-2.75,6.76,6.76,0,0,1,2.44-1.7,8.73,8.73,0,0,1,6.31,0,6.7,6.7,0,0,1,2.45,1.71A7.91,7.91,0,0,1,138.69,29a11.19,11.19,0,0,1,.57,3.7,11.35,11.35,0,0,1-.57,3.74,8,8,0,0,1-1.58,2.8,6.85,6.85,0,0,1-2.45,1.77A7.87,7.87,0,0,1,131.51,41.67Zm0-3.33a3.18,3.18,0,0,0,2.77-1.5,7.23,7.23,0,0,0,1-4.1,6.82,6.82,0,0,0-1-4,3.39,3.39,0,0,0-5.55,0,6.82,6.82,0,0,0-1,4,7.23,7.23,0,0,0,1,4.1A3.2,3.2,0,0,0,131.51,38.34Z"/><path class="cls-5" d="M144,41.35l-3.16-17.06h3.95l1.18,8c.1.89.21,1.78.34,2.68s.23,1.81.34,2.71h.1c.18-.9.35-1.81.51-2.71l.51-2.68,1.83-8h3.28l1.83,8c.17.87.34,1.76.51,2.66s.33,1.81.51,2.73h.1c.13-.92.24-1.83.36-2.72s.23-1.78.35-2.67l1.18-8h3.69l-3,17.06h-4.84l-1.67-7.75c-.14-.66-.27-1.33-.38-2s-.22-1.32-.3-2h-.11q-.15.95-.33,2c-.11.67-.24,1.34-.38,2l-1.59,7.75Z"/><path class="cls-5" d="M169,41.35V24.29h10.68v3.24h-6.83V31h5.81v3.22h-5.81v3.93h7.09v3.24Z"/><path class="cls-5" d="M183.33,41.35V24.29h4l4.45,8.48,1.67,3.77h.11l-.3-3a29.84,29.84,0,0,1-.17-3.19v-6h3.66V41.35h-4l-4.45-8.5-1.68-3.72h-.1q.14,1.41.3,3a31.28,31.28,0,0,1,.17,3.15v6Z"/><path class="cls-5" d="M200.74,41.35V24.29h6.15a11.63,11.63,0,0,1,2.56.26,5.8,5.8,0,0,1,2.08.87,4.42,4.42,0,0,1,1.41,1.64,5.53,5.53,0,0,1,.52,2.54,5.4,5.4,0,0,1-.82,3.1,5.06,5.06,0,0,1-2.21,1.82l3.87,6.83H210l-3.27-6.15h-2.12v6.15Zm3.85-9.21h2a3.7,3.7,0,0,0,2.32-.64,2.3,2.3,0,0,0,.79-1.9,1.89,1.89,0,0,0-.79-1.75,4.37,4.37,0,0,0-2.32-.5h-2Z"/><path class="cls-5" d="M223.72,41.67a7.87,7.87,0,0,1-3.15-.62,6.85,6.85,0,0,1-2.45-1.77,8,8,0,0,1-1.58-2.8,11.36,11.36,0,0,1-.56-3.74,11.29,11.29,0,0,1,.56-3.73,7.64,7.64,0,0,1,1.58-2.75,6.8,6.8,0,0,1,2.45-1.7,8.73,8.73,0,0,1,6.31,0,6.7,6.7,0,0,1,2.45,1.71A8.06,8.06,0,0,1,230.91,29a11.46,11.46,0,0,1,.56,3.7,11.62,11.62,0,0,1-.56,3.74,8.11,8.11,0,0,1-1.58,2.8,6.85,6.85,0,0,1-2.45,1.77A7.88,7.88,0,0,1,223.72,41.67Zm0-3.33a3.2,3.2,0,0,0,2.78-1.5,7.23,7.23,0,0,0,1-4.1,6.82,6.82,0,0,0-1-4,3.39,3.39,0,0,0-5.55,0,6.82,6.82,0,0,0-1,4,7.23,7.23,0,0,0,1,4.1A3.18,3.18,0,0,0,223.72,38.34Z"/><path class="cls-5" d="M234.69,41.35V24.29h3.85V38.11h6.75v3.24Z"/><path class="cls-5" d="M248.25,41.35V24.29h3.85V38.11h6.75v3.24Z"/><path class="cls-5" d="M261.81,41.35V24.29h3.85V41.35Z"/><path class="cls-5" d="M269.69,41.35V24.29h3.95l4.45,8.48,1.68,3.77h.1l-.3-3c-.11-1.12-.17-2.18-.17-3.19v-6h3.66V41.35h-3.95l-4.45-8.5L273,29.13h-.11q.14,1.41.3,3a28.6,28.6,0,0,1,.17,3.15v6Z"/><path class="cls-5" d="M294.63,41.67a9.35,9.35,0,0,1-3.28-.57,7.26,7.26,0,0,1-2.66-1.66,7.53,7.53,0,0,1-1.76-2.73,10.3,10.3,0,0,1-.65-3.79,10.19,10.19,0,0,1,.66-3.78,8.26,8.26,0,0,1,1.79-2.81,7.68,7.68,0,0,1,2.66-1.76,8.65,8.65,0,0,1,3.22-.6,7,7,0,0,1,3.19.68A8.06,8.06,0,0,1,300,26.2l-2,2.46a7.11,7.11,0,0,0-1.39-1,3.87,3.87,0,0,0-1.83-.39,4.21,4.21,0,0,0-1.82.38,4.17,4.17,0,0,0-1.43,1.08,5,5,0,0,0-.93,1.73,7.79,7.79,0,0,0-.32,2.3,6.26,6.26,0,0,0,1.19,4.1,4.37,4.37,0,0,0,3.6,1.45,3.86,3.86,0,0,0,1-.13,2.19,2.19,0,0,0,.81-.39V34.89H294V31.75h6.23V39.6a7.26,7.26,0,0,1-2.35,1.46A8.41,8.41,0,0,1,294.63,41.67Z"/><path class="cls-5" d="M309,41.35V24.29h10.76v3.24h-6.91v3.95h5.91v3.25h-5.91v6.62Z"/><path class="cls-5" d="M329.42,41.67a7.87,7.87,0,0,1-3.15-.62,6.85,6.85,0,0,1-2.45-1.77,8,8,0,0,1-1.58-2.8,11.35,11.35,0,0,1-.57-3.74,11.29,11.29,0,0,1,.57-3.73,7.64,7.64,0,0,1,1.58-2.75,6.8,6.8,0,0,1,2.45-1.7,8.73,8.73,0,0,1,6.31,0A6.66,6.66,0,0,1,335,26.27,8.08,8.08,0,0,1,336.61,29a11.46,11.46,0,0,1,.56,3.7,11.62,11.62,0,0,1-.56,3.74,8.13,8.13,0,0,1-1.59,2.8,6.82,6.82,0,0,1-2.44,1.77A7.92,7.92,0,0,1,329.42,41.67Zm0-3.33a3.2,3.2,0,0,0,2.78-1.5,7.23,7.23,0,0,0,1-4.1,6.82,6.82,0,0,0-1-4,3.39,3.39,0,0,0-5.55,0,6.82,6.82,0,0,0-1,4,7.23,7.23,0,0,0,1,4.1A3.18,3.18,0,0,0,329.42,38.34Z"/><path class="cls-5" d="M340.39,41.35V24.29h6.15a11.48,11.48,0,0,1,2.55.26,5.65,5.65,0,0,1,2.08.87,4.36,4.36,0,0,1,1.42,1.64,5.53,5.53,0,0,1,.52,2.54,5.4,5.4,0,0,1-.82,3.1,5.06,5.06,0,0,1-2.21,1.82L354,41.35h-4.32l-3.27-6.15h-2.12v6.15Zm3.85-9.21h2a3.65,3.65,0,0,0,2.31-.64,2.27,2.27,0,0,0,.8-1.9,1.87,1.87,0,0,0-.8-1.75,4.31,4.31,0,0,0-2.31-.5h-2Z"/><path class="cls-5" d="M368.61,41.67a7.92,7.92,0,0,1-3.16-.62A6.82,6.82,0,0,1,363,39.28a8.13,8.13,0,0,1-1.59-2.8,11.62,11.62,0,0,1-.56-3.74,11.56,11.56,0,0,1,.56-3.73A7.81,7.81,0,0,1,363,26.26a6.76,6.76,0,0,1,2.44-1.7,8.73,8.73,0,0,1,6.31,0,6.7,6.7,0,0,1,2.45,1.71A7.91,7.91,0,0,1,375.79,29a11.19,11.19,0,0,1,.57,3.7,11.35,11.35,0,0,1-.57,3.74,8,8,0,0,1-1.58,2.8,6.85,6.85,0,0,1-2.45,1.77A7.87,7.87,0,0,1,368.61,41.67Zm0-3.33a3.18,3.18,0,0,0,2.77-1.5,7.23,7.23,0,0,0,1-4.1,6.82,6.82,0,0,0-1-4,3.39,3.39,0,0,0-5.55,0,6.82,6.82,0,0,0-1,4,7.23,7.23,0,0,0,1,4.1A3.2,3.2,0,0,0,368.61,38.34Z"/><path class="cls-5" d="M386.3,41.67a6.47,6.47,0,0,1-5.08-2q-1.75-2-1.75-6.25V24.29h3.87v9.55a6.05,6.05,0,0,0,.76,3.51,2.61,2.61,0,0,0,2.2,1,2.69,2.69,0,0,0,2.23-1,5.88,5.88,0,0,0,.78-3.51V24.29H393v9.16q0,4.29-1.71,6.25A6.32,6.32,0,0,1,386.3,41.67Z"/><path class="cls-5" d="M397,41.35V24.29h6.15a11.63,11.63,0,0,1,2.56.26,5.8,5.8,0,0,1,2.08.87,4.42,4.42,0,0,1,1.41,1.64,5.53,5.53,0,0,1,.52,2.54,5.4,5.4,0,0,1-.82,3.1,5.06,5.06,0,0,1-2.21,1.82l3.87,6.83h-4.32L403,35.2h-2.12v6.15Zm3.85-9.21h2a3.7,3.7,0,0,0,2.32-.64,2.3,2.3,0,0,0,.79-1.9,1.89,1.89,0,0,0-.79-1.75,4.37,4.37,0,0,0-2.32-.5h-2Z"/><path class="cls-5" d="M418.26,41.35V24.29H429v3.24h-6.91v3.95H428v3.25h-5.92v6.62Z"/><path class="cls-5" d="M428.79,41.35l5.34-17.06h4.63l5.34,17.06H440l-1-4.05h-5.21l-1.05,4.05ZM435,32.71l-.42,1.58h3.64l-.39-1.58c-.24-.85-.48-1.76-.71-2.72s-.45-1.88-.68-2.77h-.1c-.21.9-.42,1.83-.64,2.79S435.21,31.86,435,32.71Z"/><path class="cls-5" d="M446,41.35V24.29h3.84V38.11h6.76v3.24Z"/><path class="cls-5" d="M459.52,41.35V24.29h3.84V38.11h6.76v3.24Z"/><path class="cls-5" d="M485.43,41.67a8.24,8.24,0,0,1-3.06-.57,7.09,7.09,0,0,1-2.53-1.66,7.84,7.84,0,0,1-1.71-2.73,10.53,10.53,0,0,1-.63-3.79,10.4,10.4,0,0,1,.65-3.78,8.5,8.5,0,0,1,1.76-2.81,7.38,7.38,0,0,1,2.56-1.76,8.1,8.1,0,0,1,3.09-.6,6.36,6.36,0,0,1,3,.67,7.85,7.85,0,0,1,2.17,1.56l-2,2.46a6.53,6.53,0,0,0-1.37-1,3.39,3.39,0,0,0-1.64-.38,3.59,3.59,0,0,0-1.64.38,3.83,3.83,0,0,0-1.33,1.08,5.33,5.33,0,0,0-.89,1.73,7.47,7.47,0,0,0-.33,2.3,6.56,6.56,0,0,0,1.13,4.1,3.6,3.6,0,0,0,3,1.45,3.73,3.73,0,0,0,1.87-.46,5.72,5.72,0,0,0,1.45-1.13l2,2.4A6.92,6.92,0,0,1,485.43,41.67Z"/><path class="cls-5" d="M499.51,41.67a7.87,7.87,0,0,1-3.15-.62,6.85,6.85,0,0,1-2.45-1.77,8,8,0,0,1-1.58-2.8,11.35,11.35,0,0,1-.57-3.74,11.29,11.29,0,0,1,.57-3.73,7.64,7.64,0,0,1,1.58-2.75,6.8,6.8,0,0,1,2.45-1.7,8.73,8.73,0,0,1,6.31,0,6.78,6.78,0,0,1,2.45,1.71A8.23,8.23,0,0,1,506.7,29a11.46,11.46,0,0,1,.56,3.7,11.62,11.62,0,0,1-.56,3.74,8.28,8.28,0,0,1-1.58,2.8,6.94,6.94,0,0,1-2.45,1.77A7.88,7.88,0,0,1,499.51,41.67Zm0-3.33a3.2,3.2,0,0,0,2.78-1.5,7.23,7.23,0,0,0,1-4.1,6.82,6.82,0,0,0-1-4,3.39,3.39,0,0,0-5.55,0,6.82,6.82,0,0,0-1,4,7.23,7.23,0,0,0,1,4.1A3.18,3.18,0,0,0,499.51,38.34Z"/><path class="cls-5" d="M510.48,41.35V24.29h3.85v6.57h5.89V24.29h3.87V41.35h-3.87V34.23h-5.89v7.12Z"/><path class="cls-5" d="M535.06,41.67a7.87,7.87,0,0,1-3.15-.62,6.85,6.85,0,0,1-2.45-1.77,8,8,0,0,1-1.58-2.8,11.35,11.35,0,0,1-.57-3.74,11.29,11.29,0,0,1,.57-3.73,7.64,7.64,0,0,1,1.58-2.75,6.8,6.8,0,0,1,2.45-1.7,8.7,8.7,0,0,1,6.3,0,6.62,6.62,0,0,1,2.45,1.71A8.08,8.08,0,0,1,542.25,29a11.46,11.46,0,0,1,.56,3.7,11.62,11.62,0,0,1-.56,3.74,8.13,8.13,0,0,1-1.59,2.8,6.77,6.77,0,0,1-2.45,1.77A7.87,7.87,0,0,1,535.06,41.67Zm0-3.33a3.18,3.18,0,0,0,2.77-1.5,7.15,7.15,0,0,0,1-4.1,6.75,6.75,0,0,0-1-4,3.38,3.38,0,0,0-5.54,0,6.82,6.82,0,0,0-1,4,7.23,7.23,0,0,0,1,4.1A3.18,3.18,0,0,0,535.06,38.34Z"/><path class="cls-5" d="M546,41.35V24.29h6.15a11.48,11.48,0,0,1,2.55.26,5.65,5.65,0,0,1,2.08.87,4.36,4.36,0,0,1,1.42,1.64,5.53,5.53,0,0,1,.52,2.54,5.4,5.4,0,0,1-.83,3.1,5,5,0,0,1-2.21,1.82l3.88,6.83h-4.32L552,35.2h-2.12v6.15Zm3.85-9.21h2a3.65,3.65,0,0,0,2.31-.64,2.3,2.3,0,0,0,.8-1.9,1.89,1.89,0,0,0-.8-1.75,4.31,4.31,0,0,0-2.31-.5h-2Z"/><path class="cls-5" d="M564.93,41.35V27.53h-4.69V24.29h13.25v3.24H568.8V41.35Z"/><path class="cls-5" d="M578.59,41.67a2.18,2.18,0,0,1-1.66-.7,2.35,2.35,0,0,1-.67-1.71,2.38,2.38,0,0,1,.67-1.74,2.32,2.32,0,0,1,3.32,0,2.38,2.38,0,0,1,.67,1.74,2.35,2.35,0,0,1-.67,1.71A2.18,2.18,0,0,1,578.59,41.67Zm-1.26-6.36-.54-8-.14-3.49h3.88l-.13,3.49-.55,8Z"/></g></svg>